<mxfile host="app.diagrams.net" modified="2023-10-21T14:21:46.001Z" agent="Mozilla/5.0 (Windows NT 10.0; Win64; x64) AppleWebKit/537.36 (KHTML, like Gecko) Chrome/118.0.0.0 Safari/537.36 Edg/118.0.2088.57" version="22.0.6" etag="QIPD7xUw97zA_1qV-YHP" type="github">
  <diagram name="PÃ¡gina-1" id="FCI-EfQiivJz2QIUVgHe">
    <mxGraphModel>
      <root>
        <mxCell id="0" />
        <mxCell id="1" parent="0" />
      </root>
    </mxGraphModel>
  </diagram>
</mxfile>
